<svg class="animated" id="freepik_stories-earth-and-moon" xmlns="http://www.w3.org/2000/svg" viewBox="0 0 500 500" version="1.1" xmlns:xlink="http://www.w3.org/1999/xlink" xmlns:svgjs="http://svgjs.com/svgjs"><style>svg#freepik_stories-earth-and-moon:not(.animated) .animable {opacity: 0;}svg#freepik_stories-earth-and-moon.animated #freepik--background-simple--inject-64 {animation: 1.5s Infinite  linear wind;animation-delay: 0s;}svg#freepik_stories-earth-and-moon.animated #freepik--Moon--inject-64 {animation: 1.5s Infinite  linear heartbeat;animation-delay: 0s;}svg#freepik_stories-earth-and-moon.animated #freepik--Earth--inject-64 {animation: 1.5s Infinite  linear floating;animation-delay: 0s;}            @keyframes wind {                0% {                    transform: rotate( 0deg );                }                25% {                    transform: rotate( 1deg );                }                75% {                    transform: rotate( -1deg );                }            }                    @keyframes heartbeat {                0% {                    transform: scale(1);                }                10% {                    transform: scale(1.1);                }                30% {                    transform: scale(1);                }                40% {                    transform: scale(1);                }                50% {                    transform: scale(1.1);                }                60% {                    transform: scale(1);                }                100% {                    transform: scale(1);                }            }                    @keyframes floating {                0% {                    opacity: 1;                    transform: translateY(0px);                }                50% {                    transform: translateY(-10px);                }                100% {                    opacity: 1;                    transform: translateY(0px);                }            }        </style><g id="freepik--background-simple--inject-64" class="animable" style="transform-origin: 247.729px 244.372px;"><path d="M383.16,127.24a210,210,0,0,0-10.85-19C326.19,37.94,202.7-.34,141.51,72.34,126.92,89.66,121.84,110.6,112,130.46c-22.32,45.19-64,72.2-90.2,114-20.27,32.44-17.57,74-6.26,109.07,12.29,38.1,33.92,64.71,68.52,84.93,38.79,22.68,80.27,16.38,122.2,8.49,18.85-3.55,38.29-7.17,57.57-5.81,24.14,1.69,48,8.52,71.92,11.84,24.9,3.46,50.74,4.27,74.73-3.25,76.83-24.1,95-137,63.44-201.73-11.18-22.9-30.14-40.57-47.74-58.5C407.2,170.2,395.56,151.26,383.16,127.24Z" style="fill: rgb(146, 227, 169); transform-origin: 247.729px 244.372px;" id="elby9wft67zx" class="animable"></path><g id="elywhjv1w1ab"><path d="M383.16,127.24a210,210,0,0,0-10.85-19C326.19,37.94,202.7-.34,141.51,72.34,126.92,89.66,121.84,110.6,112,130.46c-22.32,45.19-64,72.2-90.2,114-20.27,32.44-17.57,74-6.26,109.07,12.29,38.1,33.92,64.71,68.52,84.93,38.79,22.68,80.27,16.38,122.2,8.49,18.85-3.55,38.29-7.17,57.57-5.81,24.14,1.69,48,8.52,71.92,11.84,24.9,3.46,50.74,4.27,74.73-3.25,76.83-24.1,95-137,63.44-201.73-11.18-22.9-30.14-40.57-47.74-58.5C407.2,170.2,395.56,151.26,383.16,127.24Z" style="fill: rgb(255, 255, 255); opacity: 0.7; transform-origin: 247.729px 244.372px;" class="animable"></path></g></g><g id="freepik--Stars--inject-64" class="animable" style="transform-origin: 244.786px 241.866px;"><polygon points="190.39 95 188.93 103.28 194.93 109.17 186.6 110.34 182.85 117.86 179.16 110.31 170.85 109.06 176.9 103.22 175.51 94.94 182.93 98.88 190.39 95" style="fill: rgb(255, 255, 255); transform-origin: 182.89px 106.4px;" id="elwi8gmi4thw" class="animable"></polygon><path d="M182.85,118.36h0a.5.5,0,0,1-.45-.28l-3.57-7.31-8.05-1.21a.51.51,0,0,1-.41-.34.53.53,0,0,1,.13-.51l5.86-5.66L175,95a.49.49,0,0,1,.2-.49.51.51,0,0,1,.53,0l7.19,3.82,7.22-3.75a.5.5,0,0,1,.72.53l-1.41,8,5.81,5.71a.5.5,0,0,1,.12.51.51.51,0,0,1-.4.34l-8.07,1.13-3.63,7.29A.5.5,0,0,1,182.85,118.36Zm-10.92-9.64,7.31,1.1a.47.47,0,0,1,.37.27l3.24,6.64,3.31-6.61a.47.47,0,0,1,.37-.27l7.32-1-5.27-5.19a.51.51,0,0,1-.14-.44l1.28-7.28-6.56,3.41a.47.47,0,0,1-.46,0l-6.53-3.47,1.22,7.29a.48.48,0,0,1-.15.44Z" style="fill: rgb(38, 50, 56); transform-origin: 182.878px 106.398px;" id="ellkvgom6lih" class="animable"></path><polygon points="394.87 415.83 393.41 424.11 399.4 430 391.08 431.18 387.32 438.7 383.64 431.14 375.33 429.9 381.37 424.06 379.99 415.77 387.41 419.71 394.87 415.83" style="fill: rgb(255, 255, 255); transform-origin: 387.365px 427.235px;" id="elfl6qpsbfnrj" class="animable"></polygon><path d="M387.32,439.2h0a.49.49,0,0,1-.44-.28l-3.58-7.32-8.05-1.21a.5.5,0,0,1-.4-.34.49.49,0,0,1,.13-.51l5.85-5.66-1.34-8a.5.5,0,0,1,.73-.52l7.19,3.82,7.22-3.76a.5.5,0,0,1,.73.53l-1.41,8,5.8,5.71a.51.51,0,0,1,.13.51.51.51,0,0,1-.41.34l-8.06,1.13-3.64,7.29A.5.5,0,0,1,387.32,439.2Zm-10.92-9.65,7.31,1.1a.51.51,0,0,1,.38.27l3.24,6.65,3.3-6.62a.49.49,0,0,1,.38-.27l7.32-1-5.27-5.18a.5.5,0,0,1-.14-.45l1.28-7.28-6.56,3.41a.49.49,0,0,1-.47,0l-6.52-3.47,1.21,7.29a.5.5,0,0,1-.14.45Z" style="fill: rgb(38, 50, 56); transform-origin: 387.364px 427.25px;" id="elyusgrhkv22" class="animable"></path><polygon points="364.97 44.95 363.51 53.23 369.51 59.13 361.18 60.3 357.43 67.82 353.74 60.27 345.43 59.02 351.48 53.18 350.09 44.89 357.51 48.83 364.97 44.95" style="fill: rgb(255, 255, 255); transform-origin: 357.47px 56.355px;" id="el8d5oxs2nu2n" class="animable"></polygon><path d="M357.43,68.32h0A.5.5,0,0,1,357,68l-3.57-7.32-8.05-1.21a.47.47,0,0,1-.4-.34.5.5,0,0,1,.12-.51L350.94,53l-1.34-8a.5.5,0,0,1,.73-.52l7.19,3.82,7.22-3.76a.51.51,0,0,1,.53,0,.49.49,0,0,1,.19.49l-1.41,8,5.81,5.71a.5.5,0,0,1,.12.51.51.51,0,0,1-.4.34l-8.07,1.14L357.88,68A.51.51,0,0,1,357.43,68.32Zm-10.92-9.64,7.31,1.09a.48.48,0,0,1,.37.28l3.24,6.64,3.31-6.62a.52.52,0,0,1,.37-.27l7.32-1-5.27-5.18a.52.52,0,0,1-.14-.44l1.28-7.28-6.56,3.41a.5.5,0,0,1-.46,0l-6.53-3.46L352,53.1a.49.49,0,0,1-.15.44Z" style="fill: rgb(38, 50, 56); transform-origin: 357.48px 56.3703px;" id="elhffn2ya20ye" class="animable"></path><polygon points="238.24 423.05 237.24 428.76 241.37 432.82 235.63 433.63 233.04 438.81 230.5 433.6 224.77 432.75 228.94 428.72 227.98 423 233.1 425.72 238.24 423.05" style="fill: rgb(255, 255, 255); transform-origin: 233.07px 430.905px;" id="el98uoxvjf7z7" class="animable"></polygon><path d="M233,439.31a.63.63,0,0,1-.45-.28l-2.42-5-5.47-.82a.49.49,0,0,1-.4-.34.5.5,0,0,1,.12-.51l4-3.85-.91-5.45a.5.5,0,0,1,.73-.53l4.88,2.6,4.91-2.55a.5.5,0,0,1,.72.53l-1,5.44,3.95,3.88a.52.52,0,0,1,.12.52.49.49,0,0,1-.4.33l-5.48.77L233.49,439A.51.51,0,0,1,233,439.31Zm-7.19-6.91,4.72.71a.49.49,0,0,1,.38.27l2.1,4.3,2.13-4.28a.53.53,0,0,1,.38-.27l4.73-.66-3.41-3.36a.51.51,0,0,1-.14-.44l.83-4.71-4.24,2.21a.55.55,0,0,1-.47,0l-4.22-2.25.79,4.72a.49.49,0,0,1-.15.44Z" style="fill: rgb(38, 50, 56); transform-origin: 233.02px 430.89px;" id="elzcxyg4xz6b9" class="animable"></path><polygon points="103.01 317.41 99.66 322.13 101.66 327.57 96.12 325.85 91.57 329.43 91.5 323.63 86.69 320.41 92.18 318.55 93.76 312.98 97.22 317.62 103.01 317.41" style="fill: rgb(255, 255, 255); transform-origin: 94.85px 321.205px;" id="el3zare6uzw53" class="animable"></polygon><path d="M91.57,329.93a.54.54,0,0,1-.22-.05.5.5,0,0,1-.28-.45L91,323.9l-4.59-3.08a.5.5,0,0,1,.12-.89l5.24-1.77,1.51-5.32a.48.48,0,0,1,.39-.35.5.5,0,0,1,.49.19l3.3,4.43,5.53-.2a.5.5,0,0,1,.43.79l-3.2,4.51,1.9,5.19a.5.5,0,0,1-.1.52.49.49,0,0,1-.51.13l-5.28-1.64-4.35,3.41A.51.51,0,0,1,91.57,329.93Zm-3.76-9.38,4,2.67a.5.5,0,0,1,.22.41l.06,4.78,3.76-3a.52.52,0,0,1,.45-.09l4.57,1.43-1.65-4.49a.5.5,0,0,1,.06-.46L102,318l-4.78.17a.52.52,0,0,1-.42-.2L94,314.09l-1.3,4.6a.5.5,0,0,1-.32.33Z" style="fill: rgb(38, 50, 56); transform-origin: 94.8505px 321.206px;" id="elk9u1wvmyvnc" class="animable"></path><polygon points="464.56 186.08 461.2 190.81 463.2 196.25 457.67 194.52 453.11 198.1 453.04 192.31 448.23 189.08 453.72 187.22 455.31 181.65 458.77 186.3 464.56 186.08" style="fill: rgb(255, 255, 255); transform-origin: 456.395px 189.875px;" id="elj7z3he4h9x" class="animable"></polygon><path d="M453.11,198.6a.5.5,0,0,1-.21,0,.49.49,0,0,1-.29-.45l-.06-5.53-4.6-3.08a.49.49,0,0,1-.21-.48.49.49,0,0,1,.33-.41l5.24-1.77,1.52-5.32a.48.48,0,0,1,.39-.35.5.5,0,0,1,.49.19l3.3,4.44,5.53-.21a.47.47,0,0,1,.46.26.51.51,0,0,1,0,.53l-3.2,4.51,1.91,5.19a.52.52,0,0,1-.11.52.48.48,0,0,1-.51.13l-5.28-1.64-4.35,3.41A.51.51,0,0,1,453.11,198.6Zm-3.76-9.37,4,2.66a.48.48,0,0,1,.22.41l.06,4.78,3.76-3a.51.51,0,0,1,.46-.09l4.56,1.43L460.74,191a.47.47,0,0,1,.06-.46l2.76-3.9-4.78.17a.45.45,0,0,1-.42-.2l-2.85-3.83-1.31,4.6a.5.5,0,0,1-.32.34Z" style="fill: rgb(38, 50, 56); transform-origin: 456.404px 189.906px;" id="el7b3om930i7r" class="animable"></path><polygon points="131.27 158.01 127.92 162.73 129.92 168.17 124.39 166.45 119.83 170.03 119.76 164.23 114.95 161 120.44 159.15 122.02 153.58 125.48 158.22 131.27 158.01" style="fill: rgb(255, 255, 255); transform-origin: 123.11px 161.805px;" id="elfre44qykgo" class="animable"></polygon><path d="M119.83,170.53a.59.59,0,0,1-.22-.05.51.51,0,0,1-.28-.45l-.06-5.53-4.6-3.08a.51.51,0,0,1,.12-.89l5.24-1.77,1.51-5.32a.53.53,0,0,1,.39-.36.49.49,0,0,1,.49.2l3.31,4.43,5.53-.2a.46.46,0,0,1,.45.26.51.51,0,0,1,0,.53l-3.2,4.51,1.91,5.19a.52.52,0,0,1-.11.52.49.49,0,0,1-.51.13L124.49,167l-4.35,3.42A.51.51,0,0,1,119.83,170.53Zm-3.76-9.38,4,2.67a.48.48,0,0,1,.22.41l.06,4.78,3.76-3a.5.5,0,0,1,.46-.08l4.56,1.42-1.65-4.48a.53.53,0,0,1,.07-.47l2.76-3.9-4.78.18a.49.49,0,0,1-.42-.2l-2.85-3.83-1.31,4.6a.48.48,0,0,1-.32.33Z" style="fill: rgb(38, 50, 56); transform-origin: 123.122px 161.801px;" id="el182bgvx8qsb" class="animable"></path><polygon points="105.28 424.56 101.93 429.28 103.92 434.72 98.39 433 93.84 436.57 93.77 430.78 88.96 427.55 94.45 425.7 96.03 420.13 99.49 424.77 105.28 424.56" style="fill: rgb(255, 255, 255); transform-origin: 97.12px 428.35px;" id="elfouk2ni7f2q" class="animable"></polygon><path d="M93.84,437.08a.54.54,0,0,1-.22-.05.51.51,0,0,1-.28-.45l-.07-5.53L88.68,428a.5.5,0,0,1,.12-.89L94,425.31,95.55,420a.51.51,0,0,1,.39-.36.49.49,0,0,1,.49.2l3.31,4.43,5.52-.2a.5.5,0,0,1,.43.79l-3.2,4.51,1.9,5.19a.5.5,0,0,1-.1.52.49.49,0,0,1-.51.13l-5.28-1.65L94.15,437A.51.51,0,0,1,93.84,437.08Zm-3.76-9.38,4,2.67a.5.5,0,0,1,.22.41l.06,4.78,3.76-3a.48.48,0,0,1,.45-.08l4.57,1.42-1.65-4.48a.52.52,0,0,1,.06-.47l2.77-3.9-4.78.18a.5.5,0,0,1-.42-.2l-2.86-3.83-1.3,4.6a.52.52,0,0,1-.32.33Z" style="fill: rgb(38, 50, 56); transform-origin: 97.1205px 428.356px;" id="elj8d58jfna7p" class="animable"></path><polygon points="41.32 229.27 37.97 234 39.96 239.43 34.43 237.71 29.88 241.29 29.81 235.49 25 232.26 30.48 230.41 32.07 224.84 35.53 229.48 41.32 229.27" style="fill: rgb(255, 255, 255); transform-origin: 33.16px 233.065px;" id="eldb1ve0da0se" class="animable"></polygon><path d="M29.88,241.79a.54.54,0,0,1-.22,0,.5.5,0,0,1-.28-.45l-.07-5.53-4.59-3.08a.5.5,0,0,1,.12-.89L30.08,230l1.51-5.32a.5.5,0,0,1,.88-.16l3.3,4.43,5.53-.2a.49.49,0,0,1,.46.26.51.51,0,0,1,0,.53l-3.2,4.51,1.9,5.19a.5.5,0,0,1-.1.52.5.5,0,0,1-.52.13l-5.28-1.65-4.35,3.42A.5.5,0,0,1,29.88,241.79Zm-3.76-9.38,4,2.67a.5.5,0,0,1,.22.41l.05,4.78,3.76-3a.48.48,0,0,1,.46-.09l4.56,1.42-1.64-4.48a.5.5,0,0,1,.06-.46l2.77-3.9-4.78.17a.48.48,0,0,1-.42-.2L32.27,226l-1.3,4.6a.5.5,0,0,1-.32.33Z" style="fill: rgb(38, 50, 56); transform-origin: 33.1661px 233.061px;" id="eluz0fgaoeyy" class="animable"></path><polygon points="386.13 322.83 383.99 325.84 385.26 329.31 381.73 328.21 378.82 330.5 378.78 326.8 375.71 324.74 379.21 323.56 380.22 320 382.43 322.96 386.13 322.83" style="fill: rgb(255, 255, 255); transform-origin: 380.92px 325.25px;" id="el8u2rot5zjs" class="animable"></polygon><path d="M378.82,331a.5.5,0,0,1-.21-.05.49.49,0,0,1-.29-.45l0-3.43-2.85-1.91a.53.53,0,0,1-.22-.49.51.51,0,0,1,.34-.4l3.25-1.1.94-3.31a.48.48,0,0,1,.39-.35.51.51,0,0,1,.49.19l2.05,2.76,3.44-.13a.5.5,0,0,1,.45.26.49.49,0,0,1,0,.53l-2,2.8,1.18,3.22a.5.5,0,0,1-.11.52.49.49,0,0,1-.51.13l-3.28-1-2.7,2.12A.51.51,0,0,1,378.82,331Zm-2-6.11,2.23,1.49a.53.53,0,0,1,.22.41l0,2.69,2.11-1.66a.5.5,0,0,1,.46-.08l2.56.8-.92-2.52a.49.49,0,0,1,.06-.47l1.55-2.19-2.68.1a.53.53,0,0,1-.42-.2l-1.6-2.15-.74,2.58a.48.48,0,0,1-.32.34Z" style="fill: rgb(38, 50, 56); transform-origin: 380.962px 325.253px;" id="elx89yfxzbqad" class="animable"></path><polygon points="281 423.61 278.86 426.63 280.13 430.1 276.61 429 273.7 431.28 273.65 427.58 270.58 425.52 274.09 424.34 275.1 420.78 277.31 423.75 281 423.61" style="fill: rgb(255, 255, 255); transform-origin: 275.79px 426.03px;" id="el110ta829g02" class="animable"></polygon><path d="M273.7,431.78a.54.54,0,0,1-.22,0,.49.49,0,0,1-.28-.44l0-3.44-2.86-1.91a.51.51,0,0,1-.21-.48.49.49,0,0,1,.33-.41l3.26-1.1.94-3.31a.48.48,0,0,1,.39-.35.51.51,0,0,1,.49.19l2.05,2.76,3.43-.13a.5.5,0,0,1,.43.79l-2,2.8,1.18,3.23a.48.48,0,0,1-.1.51.51.51,0,0,1-.51.14l-3.28-1-2.7,2.12A.51.51,0,0,1,273.7,431.78Zm-2-6.11,2.23,1.5a.48.48,0,0,1,.22.41l0,2.68,2.12-1.66a.48.48,0,0,1,.45-.08l2.57.8-.93-2.52a.53.53,0,0,1,.06-.46l1.56-2.19-2.69.1a.55.55,0,0,1-.42-.2l-1.6-2.16-.73,2.58a.52.52,0,0,1-.32.34Z" style="fill: rgb(38, 50, 56); transform-origin: 275.835px 426.064px;" id="eldzk6z4qq1ek" class="animable"></path><polygon points="76.37 404.47 74.23 407.48 75.5 410.95 71.97 409.85 69.06 412.14 69.02 408.44 65.95 406.38 69.45 405.2 70.47 401.64 72.67 404.61 76.37 404.47" style="fill: rgb(255, 255, 255); transform-origin: 71.16px 406.89px;" id="elualsibg93i" class="animable"></polygon><path d="M69.06,412.64a.54.54,0,0,1-.21-.05.53.53,0,0,1-.29-.45l0-3.43-2.85-1.92a.5.5,0,0,1,.12-.88l3.26-1.1L70,401.5a.51.51,0,0,1,.39-.35.53.53,0,0,1,.5.19l2,2.75,3.43-.12a.49.49,0,0,1,.46.26.51.51,0,0,1,0,.53l-2,2.8L76,410.78a.48.48,0,0,1-.11.52.49.49,0,0,1-.51.13l-3.28-1-2.7,2.12A.51.51,0,0,1,69.06,412.64Zm-2-6.11L69.3,408a.47.47,0,0,1,.22.4l0,2.69,2.11-1.66a.51.51,0,0,1,.46-.08l2.56.8-.92-2.52a.52.52,0,0,1,.06-.47L75.37,405l-2.68.1a.49.49,0,0,1-.42-.2l-1.6-2.15-.73,2.58a.51.51,0,0,1-.33.34Z" style="fill: rgb(38, 50, 56); transform-origin: 71.176px 406.892px;" id="el7jn8kn05clw" class="animable"></path><polygon points="115.4 175.4 113.27 178.42 114.54 181.89 111.01 180.79 108.1 183.07 108.06 179.38 104.99 177.32 108.49 176.13 109.5 172.57 111.71 175.54 115.4 175.4" style="fill: rgb(255, 255, 255); transform-origin: 110.195px 177.82px;" id="elve8cc8i0d4" class="animable"></polygon><path d="M108.1,183.57a.44.44,0,0,1-.22,0,.49.49,0,0,1-.28-.44l0-3.43-2.85-1.92a.49.49,0,0,1-.22-.48.51.51,0,0,1,.34-.41l3.25-1.1.94-3.3a.51.51,0,0,1,.39-.36.49.49,0,0,1,.49.2l2,2.75,3.43-.13a.47.47,0,0,1,.46.27.49.49,0,0,1,0,.52l-2,2.8,1.19,3.23a.52.52,0,0,1-.11.52.53.53,0,0,1-.51.13l-3.28-1-2.7,2.12A.5.5,0,0,1,108.1,183.57Zm-2-6.1,2.23,1.49a.55.55,0,0,1,.22.41l0,2.68,2.11-1.65a.51.51,0,0,1,.46-.09l2.56.8-.92-2.52a.48.48,0,0,1,.06-.46l1.55-2.19-2.68.1a.5.5,0,0,1-.42-.2l-1.61-2.15-.73,2.58a.54.54,0,0,1-.32.34Z" style="fill: rgb(38, 50, 56); transform-origin: 110.215px 177.853px;" id="elmrl8h5g49sf" class="animable"></path><polygon points="417.27 412.63 415.13 415.65 416.41 419.12 412.88 418.02 409.97 420.3 409.93 416.61 406.86 414.55 410.36 413.36 411.37 409.81 413.58 412.77 417.27 412.63" style="fill: rgb(255, 255, 255); transform-origin: 412.065px 415.055px;" id="eln577a6bfzar" class="animable"></polygon><path d="M410,420.8a.44.44,0,0,1-.22-.05.49.49,0,0,1-.28-.44l0-3.44L406.58,415a.51.51,0,0,1-.22-.48.48.48,0,0,1,.34-.41L410,413l.94-3.3a.51.51,0,0,1,.39-.36.5.5,0,0,1,.49.2l2.05,2.75,3.43-.13a.53.53,0,0,1,.46.26.51.51,0,0,1,0,.53l-2,2.8,1.19,3.23a.5.5,0,0,1-.11.51.51.51,0,0,1-.51.14l-3.28-1-2.7,2.12A.5.5,0,0,1,410,420.8Zm-2-6.11,2.22,1.5a.51.51,0,0,1,.23.41l0,2.68,2.11-1.65a.54.54,0,0,1,.46-.09l2.56.8-.92-2.52a.48.48,0,0,1,.06-.46l1.55-2.19-2.68.1a.49.49,0,0,1-.42-.2l-1.61-2.15-.73,2.58a.5.5,0,0,1-.32.33Z" style="fill: rgb(38, 50, 56); transform-origin: 412.095px 415.072px;" id="el7oabao2htzm" class="animable"></path><polygon points="330.88 57.63 328.74 60.65 330.01 64.12 326.48 63.02 323.57 65.3 323.53 61.61 320.46 59.55 323.96 58.36 324.97 54.8 327.18 57.77 330.88 57.63" style="fill: rgb(255, 255, 255); transform-origin: 325.67px 60.05px;" id="el0ogg2ey7prro" class="animable"></polygon><path d="M323.57,65.8a.38.38,0,0,1-.21,0,.48.48,0,0,1-.29-.44l0-3.44L320.18,60a.5.5,0,0,1,.12-.89l3.25-1.1.94-3.3a.49.49,0,0,1,.88-.16l2.05,2.75,3.44-.13a.51.51,0,0,1,.42.79l-2,2.8L330.48,64a.5.5,0,0,1-.11.52.51.51,0,0,1-.51.13l-3.28-1-2.7,2.12A.5.5,0,0,1,323.57,65.8Zm-2-6.11,2.23,1.5a.52.52,0,0,1,.22.41l0,2.68,2.11-1.65a.48.48,0,0,1,.46-.09l2.56.8-.92-2.52a.48.48,0,0,1,.06-.46l1.55-2.19-2.68.1a.49.49,0,0,1-.42-.2l-1.6-2.15-.74,2.58a.46.46,0,0,1-.32.33Z" style="fill: rgb(38, 50, 56); transform-origin: 325.661px 60.0759px;" id="elpj3os8dsij" class="animable"></path><polygon points="378.29 212.42 376.15 215.44 377.43 218.91 373.9 217.81 370.99 220.09 370.94 216.4 367.87 214.34 371.38 213.15 372.39 209.6 374.6 212.56 378.29 212.42" style="fill: rgb(255, 255, 255); transform-origin: 373.08px 214.845px;" id="elk2c53zp8xq" class="animable"></polygon><path d="M371,220.59a.44.44,0,0,1-.22-.05.49.49,0,0,1-.28-.44l0-3.43-2.85-1.92a.48.48,0,0,1-.22-.48.49.49,0,0,1,.33-.41l3.26-1.1.94-3.3a.49.49,0,0,1,.88-.16l2,2.75,3.43-.13a.5.5,0,0,1,.46.27.49.49,0,0,1,0,.52l-2,2.8,1.19,3.23a.52.52,0,0,1-.11.52.51.51,0,0,1-.51.13l-3.28-1-2.7,2.12A.5.5,0,0,1,371,220.59Zm-2-6.1,2.23,1.49a.49.49,0,0,1,.22.41l0,2.69,2.11-1.66a.51.51,0,0,1,.46-.09l2.56.8-.93-2.52a.51.51,0,0,1,.07-.46L377.3,213l-2.69.1a.5.5,0,0,1-.42-.2l-1.6-2.15-.73,2.58a.54.54,0,0,1-.32.34Z" style="fill: rgb(38, 50, 56); transform-origin: 373.115px 214.84px;" id="ellwcwhorxvu" class="animable"></path><polygon points="324.55 114 322.41 117.02 323.68 120.49 320.15 119.39 317.25 121.67 317.2 117.98 314.13 115.92 317.63 114.73 318.64 111.18 320.85 114.14 324.55 114" style="fill: rgb(255, 255, 255); transform-origin: 319.34px 116.425px;" id="el1ephcfkjkf2" class="animable"></polygon><path d="M317.25,122.18a.54.54,0,0,1-.22-.05.51.51,0,0,1-.28-.45l0-3.43-2.86-1.92a.49.49,0,0,1-.21-.48.49.49,0,0,1,.33-.41l3.26-1.1.93-3.3a.51.51,0,0,1,.4-.35.5.5,0,0,1,.49.19l2.05,2.75,3.43-.12a.47.47,0,0,1,.46.26.49.49,0,0,1,0,.52l-2,2.81,1.18,3.22a.5.5,0,0,1-.62.65l-3.27-1-2.71,2.12A.48.48,0,0,1,317.25,122.18Zm-2-6.11,2.23,1.49a.49.49,0,0,1,.22.41l0,2.69,2.11-1.66a.51.51,0,0,1,.46-.09l2.57.8-.93-2.52a.51.51,0,0,1,.06-.46l1.55-2.19-2.68.1a.48.48,0,0,1-.42-.2l-1.6-2.15-.73,2.58a.54.54,0,0,1-.32.34Z" style="fill: rgb(38, 50, 56); transform-origin: 319.39px 116.434px;" id="el8c22c3d7xae" class="animable"></path><polygon points="110.19 89.26 108.06 92.28 109.33 95.75 105.8 94.65 102.89 96.93 102.85 93.23 99.78 91.17 103.28 89.99 104.29 86.43 106.5 89.4 110.19 89.26" style="fill: rgb(255, 255, 255); transform-origin: 104.985px 91.68px;" id="elm4i1swv4zmm" class="animable"></polygon><path d="M102.89,97.43a.38.38,0,0,1-.21-.05.48.48,0,0,1-.29-.44l0-3.44L99.5,91.59a.5.5,0,0,1,.12-.89l3.25-1.1.94-3.3a.49.49,0,0,1,.88-.16l2,2.75,3.44-.13a.5.5,0,0,1,.42.79l-2,2.8,1.18,3.23a.52.52,0,0,1-.11.52.53.53,0,0,1-.51.13l-3.28-1-2.7,2.13A.5.5,0,0,1,102.89,97.43Zm-2-6.11,2.23,1.5a.5.5,0,0,1,.22.41l0,2.68,2.11-1.65a.48.48,0,0,1,.46-.09l2.56.8-.92-2.52a.48.48,0,0,1,.06-.46l1.55-2.19-2.68.1a.49.49,0,0,1-.42-.2l-1.6-2.15-.74,2.58a.46.46,0,0,1-.32.33Z" style="fill: rgb(38, 50, 56); transform-origin: 104.96px 91.6788px;" id="el4rgnqkk5zo" class="animable"></path><polygon points="434.28 185.36 432.15 188.38 433.42 191.85 429.89 190.75 426.98 193.03 426.94 189.34 423.87 187.28 427.37 186.09 428.38 182.53 430.59 185.5 434.28 185.36" style="fill: rgb(255, 255, 255); transform-origin: 429.075px 187.78px;" id="eluk8u3pffee" class="animable"></polygon><path d="M427,193.53a.44.44,0,0,1-.22-.05.49.49,0,0,1-.28-.44l0-3.44-2.85-1.91a.5.5,0,0,1,.12-.89l3.25-1.1.94-3.3a.49.49,0,0,1,.88-.16l2.05,2.75,3.44-.13a.49.49,0,0,1,.45.26.51.51,0,0,1,0,.53l-2,2.8,1.18,3.23a.52.52,0,0,1-.11.52.53.53,0,0,1-.51.13l-3.28-1-2.7,2.12A.5.5,0,0,1,427,193.53Zm-2-6.11,2.23,1.5a.52.52,0,0,1,.22.41l0,2.68,2.11-1.65a.48.48,0,0,1,.46-.09l2.56.8-.92-2.52a.48.48,0,0,1,.06-.46l1.55-2.19-2.68.1a.49.49,0,0,1-.42-.2l-1.6-2.15-.74,2.58a.46.46,0,0,1-.32.33Z" style="fill: rgb(38, 50, 56); transform-origin: 429.141px 187.782px;" id="el3jtfyy3ku7o" class="animable"></path></g><g id="freepik--Circle--inject-64" class="animable" style="transform-origin: 240.15px 263.545px;"><path d="M238.56,458c-3.33,0-6.69-.14-10-.34l0-1c3.31.19,6.66.3,10,.33Zm10-.19,0-1c3.31-.15,6.65-.38,9.94-.7l.1,1C255.27,457.39,251.91,457.62,248.58,457.77Zm-30-1c-3.31-.37-6.64-.83-9.91-1.37l.16-1c3.26.53,6.57,1,9.86,1.36Zm50-.92-.15-1c3.27-.49,6.58-1.07,9.83-1.72l.19,1C275.14,454.78,271.82,455.36,268.53,455.85Zm-69.71-2.33c-3.25-.71-6.52-1.51-9.72-2.38l.26-1c3.19.87,6.44,1.67,9.67,2.37Zm89.36-1.62-.25-1c3.2-.81,6.43-1.72,9.6-2.7l.29.95C294.64,450.17,291.4,451.08,288.18,451.9Zm-108.67-3.65c-3.17-1-6.34-2.18-9.43-3.38l.36-.93c3.07,1.19,6.23,2.32,9.38,3.36ZM307.32,446,307,445c3.11-1.14,6.23-2.38,9.27-3.68l.39.92C313.58,443.59,310.44,444.83,307.32,446Zm-146.49-5c-3-1.36-6.08-2.82-9-4.33l.45-.89c2.94,1.5,6,2.95,9,4.31Zm164.92-2.89-.44-.9c3-1.45,5.94-3,8.84-4.62l.48.88C331.72,435.1,328.73,436.66,325.75,438.12ZM143,431.9c-2.88-1.67-5.76-3.43-8.54-5.23l.54-.84c2.77,1.79,5.63,3.54,8.5,5.2Zm200.29-3.52-.53-.85c2.81-1.76,5.61-3.61,8.33-5.51l.57.81C348.92,424.74,346.11,426.61,343.28,428.38ZM126.18,421c-2.7-1.95-5.39-4-8-6.08l.62-.78c2.58,2.07,5.25,4.11,7.93,6.05Zm233.54-4.13-.62-.79c2.61-2,5.21-4.18,7.71-6.35l.65.76C365,412.67,362.34,414.81,359.72,416.87Zm-249.16-8.44c-2.49-2.22-5-4.53-7.31-6.86l.7-.72c2.35,2.33,4.8,4.63,7.27,6.84Zm264.31-4.71-.7-.72c2.39-2.3,4.75-4.69,7-7.1l.73.68C379.63,399,377.26,401.41,374.87,403.72ZM96.31,394.33c-2.25-2.47-4.46-5-6.56-7.59l.77-.64c2.1,2.56,4.29,5.1,6.53,7.55Zm292.26-5.24-.76-.65c2.14-2.53,4.24-5.15,6.24-7.78l.8.61C392.84,383.91,390.73,386.54,388.57,389.09Zm-305-10.27c-2-2.68-3.91-5.45-5.74-8.23l.83-.55c1.83,2.76,3.75,5.52,5.72,8.19Zm317.13-5.69-.83-.56c1.87-2.73,3.69-5.55,5.41-8.38l.85.52C404.41,367.55,402.58,370.39,400.71,373.13ZM72.53,362.07c-1.69-2.88-3.32-5.83-4.86-8.79l.89-.46c1.53,2.94,3.15,5.88,4.83,8.74Zm338.61-6-.88-.48c1.58-2.92,3.1-5.91,4.52-8.89l.9.43C414.26,350.08,412.73,353.09,411.14,356ZM63.28,344.27c-1.38-3-2.69-6.13-3.91-9.22l.93-.37c1.21,3.08,2.52,6.16,3.89,9.18Zm356.48-6.33-.92-.38c1.27-3.05,2.47-6.18,3.58-9.3l.95.34C422.25,331.73,421,334.88,419.76,337.94ZM55.93,325.63c-1-3.15-2-6.37-2.94-9.58l1-.27c.9,3.19,1.88,6.4,2.93,9.53Zm370.55-6.55-1-.29c1-3.17,1.83-6.4,2.61-9.61l1,.24C428.32,312.64,427.44,315.9,426.48,319.08ZM50.54,306.33l-.15-.66c-.68-3-1.28-6.12-1.81-9.17l1-.17c.53,3,1.13,6.11,1.8,9.12l.15.66Zm380.68-6.7-1-.18c.61-3.25,1.15-6.55,1.6-9.83l1,.14C432.38,293.05,431.84,296.37,431.22,299.63Zm-384.1-13c-.4-3.31-.71-6.67-.94-10l1-.07c.22,3.3.54,6.64.94,9.93Zm386.8-6.78-1-.08c.27-3.3.46-6.65.57-10l1,0C434.39,273.13,434.2,276.5,433.92,279.81ZM45.75,266.59c0-1.08,0-2.16,0-3.25,0-2.25,0-4.53.12-6.77l1,0c-.08,2.23-.12,4.5-.12,6.74q0,1.62,0,3.24Zm387.8-6.79c-.06-3.3-.22-6.66-.46-10l1-.07c.24,3.32.4,6.69.46,10ZM47.45,246.65l-1-.09c.29-3.31.67-6.65,1.13-9.94l1,.14C48.11,240,47.74,243.36,47.45,246.65Zm384.67-6.73c-.41-3.27-.9-6.59-1.48-9.86l1-.18c.58,3.29,1.09,6.63,1.49,9.91Zm-381.91-13-1-.19c.63-3.26,1.36-6.55,2.16-9.77l1,.24C51.55,220.42,50.83,223.7,50.21,226.94ZM429,221.6c-.71-3.23-1.52-6.49-2.4-9.68l1-.26c.88,3.2,1.7,6.47,2.42,9.72Zm-374-14-1-.29c1-3.18,2-6.38,3.15-9.5l.94.33C57,201.27,56,204.45,55,207.61Zm368.66-5.22c-1-3.14-2.18-6.3-3.38-9.38l.93-.37c1.21,3.11,2.35,6.28,3.4,9.43ZM61.74,188.87l-.92-.39c1.28-3.06,2.66-6.13,4.11-9.13l.9.43C64.39,182.77,63,185.82,61.74,188.87Zm354.66-5.06c-1.36-3-2.82-6-4.33-9l.89-.46c1.52,3,3,6,4.36,9Zm-346-12.9-.88-.48c1.6-2.92,3.29-5.83,5-8.67l.85.53C73.65,165.1,72,168,70.38,170.91Zm336.89-4.83c-1.67-2.87-3.44-5.73-5.25-8.5l.83-.55c1.83,2.79,3.6,5.66,5.28,8.54ZM80.82,153.93l-.83-.57c1.89-2.74,3.87-5.47,5.89-8.11l.8.61C84.67,148.48,82.7,151.2,80.82,153.93Zm315.51-4.56c-2-2.67-4-5.33-6.1-7.9l.77-.63c2.1,2.58,4.17,5.25,6.14,7.94ZM92.94,138.09l-.76-.64c2.16-2.54,4.41-5,6.69-7.47l.73.68C97.33,133.07,95.09,135.57,92.94,138.09Zm290.79-4.19c-2.23-2.46-4.54-4.89-6.89-7.22l.71-.71c2.35,2.35,4.68,4.79,6.92,7.26Zm-277.1-10.31-.69-.73c2.41-2.3,4.91-4.57,7.43-6.74l.65.76C111.51,119,109,121.3,106.63,123.59Zm263-3.77c-2.47-2.22-5-4.4-7.59-6.48l.63-.78c2.58,2.1,5.15,4.29,7.63,6.51Zm-247.85-9.26-.61-.79c2.63-2,5.35-4,8.09-5.94l.57.82C127.08,106.54,124.37,108.53,121.75,110.56Zm232.35-3.3c-2.67-2-5.43-3.85-8.21-5.66l.55-.84c2.79,1.82,5.56,3.73,8.25,5.69Zm-216-8.09-.53-.85c2.83-1.76,5.75-3.47,8.67-5.07l.48.87C143.86,95.72,141,97.42,138.14,99.17Zm199.27-2.81c-2.86-1.66-5.8-3.28-8.74-4.79l.46-.89c2.95,1.52,5.91,3.14,8.78,4.82ZM155.62,89.54l-.44-.9c3-1.45,6.06-2.84,9.13-4.14l.39.92C161.65,86.71,158.59,88.1,155.62,89.54Zm164.07-2.31c-3-1.36-6.11-2.67-9.18-3.87l.36-.93c3.09,1.21,6.2,2.52,9.23,3.89ZM174,81.79l-.34-1c3.12-1.13,6.32-2.2,9.51-3.17l.29,1C180.27,79.6,177.09,80.66,174,81.79ZM301.14,80c-3.14-1-6.35-2-9.53-2.91l.27-1c3.19.88,6.42,1.87,9.58,2.92ZM193,76l-.24-1c1.73-.43,3.48-.85,5.22-1.23q2.28-.51,4.56-1l.2,1c-1.52.3-3,.62-4.55,1C196.51,75.11,194.76,75.53,193,76ZM282,74.65c-3.23-.71-6.52-1.35-9.78-1.9l.17-1c3.27.55,6.58,1.2,9.82,1.92ZM212.6,72.1l-.14-1c3.3-.48,6.65-.88,9.95-1.19l.1,1C219.22,71.22,215.88,71.62,212.6,72.1Zm49.72-.75c-3.29-.38-6.63-.67-9.93-.88l.06-1c3.32.21,6.68.51,10,.89Zm-29.86-1.1,0-1c2.66-.11,5.38-.16,8-.16h2v1h-2.09C237.72,70.09,235.07,70.15,232.46,70.25Z" style="fill: rgb(38, 50, 56); transform-origin: 240.15px 263.545px;" id="elea1mxa2wneu" class="animable"></path></g><g id="freepik--Moon--inject-64" class="animable" style="transform-origin: 393.99px 133.76px;"><circle cx="394.03" cy="133.8" r="49.73" style="fill: rgb(255, 255, 255); transform-origin: 394.03px 133.8px;" id="elj1rglfyii2" class="animable"></circle><path d="M394,184a50.24,50.24,0,1,1,50.23-50.23A50.28,50.28,0,0,1,394,184Zm0-99.47a49.24,49.24,0,1,0,49.23,49.24A49.29,49.29,0,0,0,394,84.56Z" style="fill: rgb(38, 50, 56); transform-origin: 393.99px 133.76px;" id="elyr7jquje6pj" class="animable"></path><path d="M383.61,140.82c0,2.53,1.54,4.56,3.36,4.53s3.27-2.1,3.23-4.63-1.55-4.55-3.37-4.52S383.57,138.3,383.61,140.82Z" style="fill: rgb(38, 50, 56); transform-origin: 386.905px 140.775px;" id="elggf6yppxrr" class="animable"></path><path d="M384.87,138.68c-.1,1,.29,1.83.88,1.89s1.15-.68,1.26-1.66-.29-1.83-.88-1.89S385,137.7,384.87,138.68Z" style="fill: rgb(255, 255, 255); transform-origin: 385.941px 138.795px;" id="el351vd7zmer4" class="animable"></path><path d="M363,140.49c0,2.53,1.55,4.56,3.37,4.53s3.27-2.1,3.23-4.63-1.55-4.55-3.37-4.53S362.91,138,363,140.49Z" style="fill: rgb(38, 50, 56); transform-origin: 366.298px 140.44px;" id="elyvl5g6b0tio" class="animable"></path><path d="M364.34,138.09c-.1,1,.29,1.83.88,1.89s1.15-.68,1.26-1.66-.29-1.83-.88-1.89S364.44,137.11,364.34,138.09Z" style="fill: rgb(255, 255, 255); transform-origin: 365.411px 138.205px;" id="eldvltljrrdyt" class="animable"></path><path d="M379.24,165.65a13.59,13.59,0,0,1-13.14-10.82,1,1,0,0,1,2-.42,11.38,11.38,0,0,0,22.3.25,1,1,0,0,1,1.94.46,13.5,13.5,0,0,1-12.85,10.53Z" style="fill: rgb(38, 50, 56); transform-origin: 379.215px 159.625px;" id="eltrqv9btamt" class="animable"></path><g id="elfj2l6otvcgh"><path d="M427.92,134.8c-1.73,6-7.35,9.72-12.56,8.23s-8-7.59-6.32-13.63,7.35-9.72,12.56-8.23S429.64,128.76,427.92,134.8Z" style="opacity: 0.19; transform-origin: 418.488px 132.099px;" class="animable"></path></g><g id="elpr088mxibp"><path d="M418,158.91c-3,3.43-7.38,4.48-9.88,2.33s-2.11-6.68.86-10.11,7.38-4.48,9.87-2.33S421,155.48,418,158.91Z" style="opacity: 0.19; transform-origin: 413.49px 155.02px;" class="animable"></path></g><g id="elaebx2zx40y9"><path d="M399.37,109.38c-4.31-1.4-6.84-5.51-5.65-9.18s5.66-5.5,10-4.1,6.84,5.51,5.65,9.18S403.68,110.79,399.37,109.38Z" style="opacity: 0.19; transform-origin: 401.546px 102.742px;" class="animable"></path></g><g id="el1ktwnvhoyqr"><path d="M436.85,147.48c-.81,2.82-3.12,4.64-5.16,4.05s-3.05-3.34-2.25-6.16,3.12-4.64,5.17-4.05S437.66,144.66,436.85,147.48Z" style="opacity: 0.19; transform-origin: 433.148px 146.425px;" class="animable"></path></g><g id="el7wnckp6efs7"><path d="M415.61,172.3c-1.69,1.64-4,2-5.22.76s-.79-3.55.9-5.19,4-2,5.21-.76S417.29,170.66,415.61,172.3Z" style="opacity: 0.19; transform-origin: 413.443px 170.085px;" class="animable"></path></g><g id="elg0nj5voi837"><path d="M437.81,128.28c.48,2.3-.5,4.45-2.17,4.79s-3.41-1.24-3.89-3.55.5-4.45,2.17-4.8S437.34,126,437.81,128.28Z" style="opacity: 0.19; transform-origin: 434.78px 128.894px;" class="animable"></path></g><g id="elod4ghu0rvq"><path d="M365,112.56c-1.13,2.71-3.64,4.24-5.6,3.42s-2.64-3.68-1.51-6.39,3.64-4.24,5.6-3.42S366.1,109.85,365,112.56Z" style="opacity: 0.19; transform-origin: 361.438px 111.075px;" class="animable"></path></g><g id="el96013eouvek"><path d="M434,108.68c.93,2.78.05,5.58-2,6.26s-4.41-1-5.35-3.81-.05-5.59,2-6.26S433.08,105.9,434,108.68Z" style="opacity: 0.19; transform-origin: 430.323px 109.907px;" class="animable"></path></g><path d="M420.67,170.63a.51.51,0,0,1-.4-.2.5.5,0,0,1,.1-.7,44.57,44.57,0,0,0,2.31-70.06.5.5,0,1,1,.64-.76A45.57,45.57,0,0,1,421,170.54.55.55,0,0,1,420.67,170.63Z" style="fill: rgb(38, 50, 56); transform-origin: 429.881px 134.692px;" id="elk7tt5xl2dy" class="animable"></path><path d="M416.72,95.37a.55.55,0,0,1-.25-.07,44.31,44.31,0,0,0-10.63-4.47.5.5,0,0,1,.27-1A45.29,45.29,0,0,1,417,94.44a.5.5,0,0,1-.25.93Z" style="fill: rgb(38, 50, 56); transform-origin: 411.351px 92.5912px;" id="el2zbznvyttwj" class="animable"></path></g><g id="freepik--Earth--inject-64" class="animable animator-active" style="transform-origin: 240.16px 263.53px;"><g id="eldwl4ikghzvq"><circle cx="240.16" cy="263.53" r="116.5" style="fill: rgb(146, 227, 169); transform-origin: 240.16px 263.53px; transform: rotate(-45deg);" class="animable"></circle></g><polygon points="221 212.94 233.01 214.61 237.33 218.53 242.65 218.99 244.65 223.88 243.65 227.34 240.17 229.22 231.27 228.37 230.96 227.31 234.93 224.13 231.71 219.02 223.77 218.46 219.34 215.15 221 212.94" style="fill: rgb(255, 255, 255); transform-origin: 231.995px 221.08px;" id="elw9nd4odl8pl" class="animable"></polygon><path d="M323.73,316l-9.5-1-11.44-.69-8.22,2.41-8.17.66-7.94,4.34-4.7,1.66-2.92.85-4.65,4.82-4.68,3.67L253,330.33l-.31-8-5.06-.54-5.3,1.56-1.5-2.16-.87-4.93-2.63-2.11-3.56,1.62-.29,3-4.43,1.58-5.38-3.61-3.45-5.9,1.81-8.6,7.85-1.72,2.66,1.24,3.19-.93,3.28-3.55,3.76.05,7.18,6.83,1.78-.81-2.31-5.95-2.53-2.72-.94-5.19,8.58-7.12L253,272.14l3.24-4.69,1.67-7.11,2.5-1.31,4.94-5.77-.36-2.2-4.17,1.51-1.42-1.89-2.92.85-4.2,2.38,1.12-4.07,8.51-5.37,1.43-3,5.42,4.76,3.09,1.69,3.4-2.15-2.6-3-6.74-2.35-8.46-5.3-8-2.57-6.68.8-4.11-2.25-4.56.18-.22,1.21,1.72,7.85,1.84,2.35.09,9.19-6.55-2.7-.29-3.94-6.35-1L221.14,242l-.61-7,6.06-7.83-1.33-6.52-2.84,1.12-2.55-1.85-2-3.74-1.94.27.18,4.56-2.76,1.38-4-8.9-2.51-.7-4.18-.51L199,215.62l6.78,3.49,2.38,4.2-11.65-4.37-8.73-5.23-2.63-7-7.52-.1-4.3,5a41.83,41.83,0,0,1-3.36,3.28,46.17,46.17,0,0,1-6.06,2.93l.26,4.82-6,2.05,1.38,2.77,10.28-1.28,6.68,4.09,2.71,9.29-.51,9.08,3.09,8.61-3.63,15.17,4.08,19.84,5.64,10.45,5.94,7.48,4.13-.63-2.57-3.86-3.05-2.56-3-5.45,2.23-1.23,6.51,8.47,5.14,7.71,2,6.9,6.83,4.63,11,4,14.89-.32,5.41,2.74,4.43,3.31,5.63,1.52,6.3-.11,5.76-2s.51,2.73.9,4.06-2,6.92-2,6.92L263,350.47l3.83,5.22,6.53.68L284,362.46l4.19.5,1.16,4,1,1.72a116,116,0,0,0,48-42.48l-.42-2,3.36-15.1-4.15-1.38Z" style="fill: rgb(255, 255, 255); transform-origin: 249.73px 287.645px;" id="el5no993xfznp" class="animable"></path><path d="M320.68,203.09l-4.4-4.19-5.42-4.75-3.39-7.65,5-.6-.51-2.73-3.53.74,2.53-2.18,2.65-2.79-.78-2.66L308.41,173l-2.35-5.51A116.58,116.58,0,0,0,165.53,174l7.39,2.54-2.32,5.86L165.87,185l1.56,7.32-1.89,1.42-1.8,3.69,1.66,4.7,4.67-.79-.54,5.06,4.51-1.32L178.87,193l-.45-4.48,7.28-2.7.93-3.73,7.46-3.05-.52-4.74,5.49-1.9s3.36-3.28,4.16-3.52a34.1,34.1,0,0,1,4.9,0l4.91,2,5.57-1.63,3.93-4.31,6.25-1.26a6.8,6.8,0,0,0,3.23.21c1.33-.39,4.77-3.41,4.77-3.41l9.09,2.53,3.89,1.45,1.16,4,4.14-.63.62-2.78,3.92.59.35,2.2-7.34,4.45,6.22,4.52,11.11,2.51,5.53,4.15,6-1.18.55-3,2-1.15-8.45-3.29-4.4.71,3.14-2.07-4.5-3.58,4.43-1.59,6.77,1.48,3.19,6,3.93,2.6,4.64,7,7.08,2.53,2.56,8.76,7.27,2.2.58,3,.22,3.69,3,4.31,1.23,2.23,4.74-.52.8-5.13Z" style="fill: rgb(255, 255, 255); transform-origin: 242.21px 179.577px;" id="elpd4suifuukd" class="animable"></path><path d="M316.31,175.34l.44,1.53-.08,4.63,1.88,3.49,3.23.2,1.48,5.05-3.58-.4,3.4,14.56-1.48,6.77,4.3,6.81,4.38,2.18,4.19,14.33,6.71,10.14,6.2,7.4,6.57-.19.57-5.93.66-.93a116.64,116.64,0,0,0-38.87-69.64Z" style="fill: rgb(255, 255, 255); transform-origin: 335.745px 213.685px;" id="elx55fr88e8h" class="animable"></path><polygon points="247.24 309.55 246.48 310.92 255.14 310.98 259.42 313.77 264.61 312.82 265.62 309.36 259.2 310.08 247.24 309.55" style="fill: rgb(255, 255, 255); transform-origin: 256.05px 311.565px;" id="elny2ii53514" class="animable"></polygon><polygon points="272.33 307.69 267.22 310.91 268.64 312.8 275.54 310.78 276.25 308.27 273.93 309.23 272.33 307.69" style="fill: rgb(255, 255, 255); transform-origin: 271.735px 310.245px;" id="elam54zwcly9i" class="animable"></polygon><g id="elvxl7zm3m3ok"><path d="M326.84,332A116.5,116.5,0,0,1,197.54,155.1,116.5,116.5,0,1,0,336.77,328.64C333.54,329.9,330.23,331,326.84,332Z" style="opacity: 0.19; transform-origin: 230.22px 267.56px;" class="animable"></path></g><path d="M240.13,374.33a110.78,110.78,0,0,1-16.28-1.21.5.5,0,0,1,.14-1,110.13,110.13,0,0,0,19,1.16.51.51,0,0,1,.51.48.5.5,0,0,1-.49.52C242.07,374.31,241.1,374.33,240.13,374.33Z" style="fill: rgb(38, 50, 56); transform-origin: 233.458px 373.223px;" id="el248mdedjuid" class="animable"></path><path d="M219.22,372.31h-.1c-3.31-.65-6.62-1.45-9.86-2.39a.5.5,0,1,1,.28-1c3.21.93,6.5,1.73,9.77,2.36a.51.51,0,0,1,.4.59A.5.5,0,0,1,219.22,372.31Z" style="fill: rgb(38, 50, 56); transform-origin: 214.298px 370.605px;" id="ell1699zk5s4r" class="animable"></path><path d="M205.31,368.66l-.15,0A110.83,110.83,0,0,1,131.83,240.3a.49.49,0,0,1,.59-.38.51.51,0,0,1,.39.59,109.83,109.83,0,0,0,72.66,127.17.51.51,0,0,1,.32.64A.5.5,0,0,1,205.31,368.66Z" style="fill: rgb(38, 50, 56); transform-origin: 167.593px 304.284px;" id="eldkeewkjaem5" class="animable"></path><path d="M136.09,227.55a.51.51,0,0,1-.48-.67,111.84,111.84,0,0,1,9-19.36.49.49,0,0,1,.68-.18.51.51,0,0,1,.18.69,110.48,110.48,0,0,0-8.89,19.18A.5.5,0,0,1,136.09,227.55Z" style="fill: rgb(38, 50, 56); transform-origin: 140.561px 217.41px;" id="el398jqvflq8f" class="animable"></path><path d="M240,380.58A117,117,0,1,1,352.46,230.69h0A117,117,0,0,1,273,375.83,117.58,117.58,0,0,1,240,380.58Zm.33-233.11A116,116,0,1,0,351.5,231h0a116.15,116.15,0,0,0-111.18-83.5Z" style="fill: rgb(38, 50, 56); transform-origin: 240.171px 263.58px;" id="elmn53oli8v79" class="animable"></path><path d="M256.23,213.73c1.25,5.47-.93,10.63-4.87,11.52s-8.13-2.8-9.38-8.27.94-10.63,4.87-11.52S255,208.26,256.23,213.73Z" style="fill: rgb(38, 50, 56); transform-origin: 249.105px 215.355px;" id="elwlcdz2tvqsi" class="animable"></path><path d="M252.38,209.78c.74,2.06.34,4.09-.9,4.53s-2.84-.86-3.58-2.92-.33-4.08.9-4.53S251.64,207.73,252.38,209.78Z" style="fill: rgb(255, 255, 255); transform-origin: 250.141px 210.584px;" id="elk2fb59dl6yo" class="animable"></path><path d="M305.06,202.12c1.25,5.47-.93,10.62-4.87,11.52s-8.14-2.81-9.38-8.27.93-10.63,4.87-11.53S303.82,196.65,305.06,202.12Z" style="fill: rgb(38, 50, 56); transform-origin: 297.937px 203.74px;" id="elo7tdpnf3awe" class="animable"></path><path d="M300.81,197.68c.74,2,.34,4.08-.9,4.52s-2.84-.86-3.58-2.91-.33-4.09.91-4.53S300.08,195.62,300.81,197.68Z" style="fill: rgb(255, 255, 255); transform-origin: 298.571px 198.48px;" id="elqamvud0ss0s" class="animable"></path><path d="M280.44,258.53a29.56,29.56,0,0,1-26.21-16.32,1,1,0,1,1,1.79-.91,27.34,27.34,0,0,0,30.32,14.56c12.54-2.85,21.37-14.51,21-27.7a1,1,0,0,1,1-1,1,1,0,0,1,1,1,29.48,29.48,0,0,1-22.57,29.71A28.61,28.61,0,0,1,280.44,258.53Z" style="fill: rgb(38, 50, 56); transform-origin: 281.739px 242.845px;" id="elv6dgyqx1cla" class="animable"></path><path d="M304.39,253.49a17.78,17.78,0,0,1-14.26,18.78,18.56,18.56,0,0,1-20.56-9.87l-4.26-9.13s22.63,13.09,38.52-8.54Z" style="fill: rgb(38, 50, 56); transform-origin: 284.875px 258.712px;" id="elxjdwz80rxt" class="animable"></path><path d="M286.13,273.72a19.68,19.68,0,0,1-17.45-10.86l-4.28-9.17a1,1,0,0,1,1.41-1.29c.89.52,22.05,12.37,37.21-8.27a1,1,0,0,1,1.09-.36,1,1,0,0,1,.71.89l.56,8.76v0c.45,9.84-5.45,17.62-15,19.8A19,19,0,0,1,286.13,273.72Zm-18.75-18.37,3.1,6.63a17.51,17.51,0,0,0,19.43,9.31,16.74,16.74,0,0,0,13.48-17.75L303,247.4C290.15,262.67,273.66,258,267.38,255.35Z" style="fill: rgb(38, 50, 56); transform-origin: 284.854px 258.724px;" id="elzr4t783otu" class="animable"></path><path d="M290.13,272.27a18.7,18.7,0,0,0,9.38-5.18c-2.66-4-8.52-6-14.6-4.59a15.32,15.32,0,0,0-9.71,6.55A18.2,18.2,0,0,0,290.13,272.27Z" style="fill: rgb(255, 255, 255); transform-origin: 287.355px 267.38px;" id="elq6swusgkey" class="animable"></path><path d="M286.16,273.21a18.84,18.84,0,0,1-11.26-3.76.49.49,0,0,1-.13-.66,15.75,15.75,0,0,1,10-6.78c6.19-1.41,12.27.52,15.14,4.81a.49.49,0,0,1-.06.62,19.15,19.15,0,0,1-9.63,5.31h0A18.17,18.17,0,0,1,286.16,273.21Zm4-.94h0Zm-14.26-3.35A17.7,17.7,0,0,0,290,271.78a18.26,18.26,0,0,0,8.84-4.74c-2.69-3.65-8.31-5.32-13.84-4.06A15,15,0,0,0,275.87,268.92Z" style="fill: rgb(38, 50, 56); transform-origin: 287.344px 267.382px;" id="ely1k6kueoci" class="animable"></path></g><defs>     <filter id="active" height="200%">         <feMorphology in="SourceAlpha" result="DILATED" operator="dilate" radius="2"></feMorphology>                <feFlood flood-color="#32DFEC" flood-opacity="1" result="PINK"></feFlood>        <feComposite in="PINK" in2="DILATED" operator="in" result="OUTLINE"></feComposite>        <feMerge>            <feMergeNode in="OUTLINE"></feMergeNode>            <feMergeNode in="SourceGraphic"></feMergeNode>        </feMerge>    </filter>    <filter id="hover" height="200%">        <feMorphology in="SourceAlpha" result="DILATED" operator="dilate" radius="2"></feMorphology>                <feFlood flood-color="#ff0000" flood-opacity="0.5" result="PINK"></feFlood>        <feComposite in="PINK" in2="DILATED" operator="in" result="OUTLINE"></feComposite>        <feMerge>            <feMergeNode in="OUTLINE"></feMergeNode>            <feMergeNode in="SourceGraphic"></feMergeNode>        </feMerge>            <feColorMatrix type="matrix" values="0   0   0   0   0                0   1   0   0   0                0   0   0   0   0                0   0   0   1   0 "></feColorMatrix>    </filter></defs></svg>